<svg width="1680" height="493" viewBox="0 0 1680 493" fill="none" xmlns="http://www.w3.org/2000/svg">
<path d="M-150.643 850.169L-205.457 775.717L-18.3346 633.913C29.1732 597.911 87.4759 582.726 146.019 591.206C146.442 591.267 147.076 591.359 147.499 591.42C206.614 600.42 258.331 632.196 293.306 681.239C307.637 701.474 329.035 714.637 353.552 718.188C353.763 718.219 353.974 718.25 354.186 718.28C378.279 721.77 402.259 715.616 421.893 700.738C461.402 670.797 470.385 613.244 441.752 572.559L398.788 511.638C341.872 433.819 357.919 323.029 434.967 264.832C472.779 236.177 518.955 224.268 565.39 231.431C611.855 238.38 652.662 263.544 680.094 302.086C728.561 369.71 791.72 458.06 843.792 530.583C882.553 584.769 958.03 597.013 1012.05 557.797L1015.65 555.256C1043.85 534.836 1062.28 504.467 1067.67 470.241C1073.02 436.23 1064.58 402.188 1044.2 374.513L994.585 307.378C966.457 269.173 954.706 222.181 961.534 175.036C968.362 127.892 992.963 86.165 1030.56 57.4797L1036.62 52.8876C1074.68 24.0493 1121.1 11.9564 1167.41 18.446C1167.62 18.4766 1167.84 18.5072 1168.05 18.5378C1214.12 25.211 1255.02 49.732 1282.76 87.6619L1285.46 91.3355C1306.92 120.479 1338.29 139.245 1373.59 144.357C1409.1 149.5 1444.51 140.407 1473.14 118.518L1701.89 -54.4507L1756.71 20.0007L1528.62 192.847C1480.14 229.584 1420.51 245.014 1360.91 236.382C1301.1 227.719 1248.29 196.004 1212.23 147.022L1209.53 143.349C1196.36 125.471 1177.14 113.715 1155.15 110.532L1154.94 110.501C1132.75 107.287 1110.31 113.226 1091.89 127.186L1085.83 131.778C1067.9 145.371 1056.16 165.331 1052.87 188.046C1049.61 210.547 1055.2 233.017 1068.72 251.385L1118.16 318.275C1153.53 366.063 1167.87 425.024 1158.67 484.078C1149.43 543.346 1117.72 595.42 1069.22 630.84L1065.62 633.381C1019.57 666.75 963.479 680.068 907.807 671.129C851.924 662.16 803.042 631.67 769.839 585.29C717.798 512.553 654.608 424.418 606.141 356.793C593.04 338.486 573.812 326.731 551.863 323.333C529.883 320.149 507.96 325.507 490.023 339.1C472.329 352.508 460.865 372.071 457.668 394.143C454.471 416.215 459.914 438.226 473.077 456.105L473.618 456.839L516.942 518.25C544.854 557.955 556.176 606.416 548.739 654.786C541.302 703.155 515.7 745.831 477.13 775.251C437.863 805.007 389.661 817.498 341.262 810.488C340.839 810.427 340.417 810.366 339.994 810.305C291.234 802.805 248.227 776.447 219.352 735.946C198.89 707.383 168.602 688.556 133.972 683.322C133.761 683.291 133.338 683.23 133.127 683.2C98.8884 678.241 64.5967 687.058 36.9336 708.212L-150.643 850.169Z" fill="#ECEDED"/>
</svg>
