<svg xmlns="http://www.w3.org/2000/svg" width="25" height="24" viewBox="0 0 25 24" fill="none">
  <path d="M20.5566 0.600098H5.33994C3.77987 0.600098 2.50781 1.87214 2.50781 3.4321V20.5441C2.50781 22.1041 3.77991 23.3761 5.33994 23.3761H20.5566C22.1167 23.3761 23.3888 22.1041 23.3888 20.5441L23.3887 3.4321C23.4127 1.8721 22.1407 0.600098 20.5565 0.600098H20.5566ZM6.10797 5.3521C6.10797 4.89608 6.46799 4.53608 6.92403 4.53608H10.8602C11.3162 4.53608 11.6763 4.89608 11.6763 5.3521L11.6762 9.8401C11.6762 10.2961 11.3162 10.6561 10.8601 10.6561H6.92395C6.46791 10.6561 6.1079 10.2961 6.1079 9.8401L6.10797 5.3521ZM19.2366 19.2241H6.66C6.32396 19.2241 6.03599 18.9361 6.03599 18.6001C6.03599 18.2641 6.32396 17.9761 6.66 17.9761H19.2366C19.5726 17.9761 19.8606 18.2641 19.8606 18.6001C19.8606 18.9361 19.5725 19.2241 19.2365 19.2241H19.2366ZM19.2366 14.8321H6.66C6.32396 14.8321 6.03599 14.5441 6.03599 14.2081C6.03599 13.8721 6.32396 13.5841 6.66 13.5841H19.2366C19.5726 13.5841 19.8606 13.8721 19.8606 14.2081C19.8606 14.5441 19.5725 14.8321 19.2365 14.8321H19.2366ZM19.2366 10.4161H14.7484C14.4123 10.4161 14.1244 10.1281 14.1244 9.79212C14.1244 9.4561 14.4123 9.16814 14.7484 9.16814H19.2126C19.5486 9.16814 19.8366 9.4561 19.8366 9.79212C19.8606 10.1521 19.5726 10.4161 19.2365 10.4161H19.2366ZM19.2366 6.0241H14.7484C14.4123 6.0241 14.1244 5.73614 14.1244 5.40012C14.1244 5.0641 14.4123 4.77614 14.7484 4.77614H19.2126C19.5486 4.77614 19.8366 5.0641 19.8366 5.40012C19.8366 5.73614 19.5726 6.0241 19.2365 6.0241H19.2366Z" fill="white"/>
</svg>