<svg width="22" height="24" viewBox="0 0 22 24" fill="none" xmlns="http://www.w3.org/2000/svg">
<path d="M18.6081 0.599976H3.39206C1.83206 0.599976 0.560059 1.87202 0.560059 3.43198V20.544C0.560059 22.104 1.8321 23.376 3.39206 23.376H18.6081C20.1681 23.376 21.4401 22.1039 21.4401 20.544L21.44 3.43198C21.464 1.87198 20.192 0.599976 18.608 0.599976H18.6081ZM4.16006 5.35198C4.16006 4.89596 4.52006 4.53596 4.97608 4.53596H8.91208C9.3681 4.53596 9.7281 4.89596 9.7281 5.35198L9.72802 9.83998C9.72802 10.296 9.36802 10.656 8.912 10.656H4.976C4.51998 10.656 4.15998 10.296 4.15998 9.83998L4.16006 5.35198ZM17.2881 19.224H4.71206C4.37604 19.224 4.08808 18.936 4.08808 18.6C4.08808 18.264 4.37604 17.976 4.71206 17.976H17.2881C17.6241 17.976 17.912 18.264 17.912 18.6C17.912 18.936 17.624 19.224 17.288 19.224H17.2881ZM17.2881 14.832H4.71206C4.37604 14.832 4.08808 14.544 4.08808 14.208C4.08808 13.872 4.37604 13.584 4.71206 13.584H17.2881C17.6241 13.584 17.912 13.872 17.912 14.208C17.912 14.5439 17.624 14.832 17.288 14.832H17.2881ZM17.2881 10.416H12.8001C12.464 10.416 12.1761 10.128 12.1761 9.792C12.1761 9.45598 12.464 9.16802 12.8001 9.16802H17.2641C17.6001 9.16802 17.888 9.45598 17.888 9.792C17.9121 10.152 17.6241 10.416 17.288 10.416H17.2881ZM17.2881 6.02398H12.8001C12.464 6.02398 12.1761 5.73602 12.1761 5.4C12.1761 5.06398 12.464 4.77602 12.8001 4.77602H17.2641C17.6001 4.77602 17.888 5.06398 17.888 5.4C17.888 5.73602 17.6241 6.02398 17.288 6.02398H17.2881Z" fill="#2C96D0"/>
</svg>
