<svg width="24" height="24" viewBox="0 0 24 24" fill="none" xmlns="http://www.w3.org/2000/svg">
<path d="M19.6081 0.599976H4.39206C2.83206 0.599976 1.56006 1.87202 1.56006 3.43198V20.544C1.56006 22.104 2.8321 23.376 4.39206 23.376H19.6081C21.1681 23.376 22.4401 22.1039 22.4401 20.544L22.44 3.43198C22.464 1.87198 21.192 0.599976 19.608 0.599976H19.6081ZM5.16006 5.35198C5.16006 4.89596 5.52006 4.53596 5.97608 4.53596H9.91208C10.3681 4.53596 10.7281 4.89596 10.7281 5.35198L10.728 9.83998C10.728 10.296 10.368 10.656 9.912 10.656H5.976C5.51998 10.656 5.15998 10.296 5.15998 9.83998L5.16006 5.35198ZM18.2881 19.224H5.71206C5.37604 19.224 5.08808 18.936 5.08808 18.6C5.08808 18.264 5.37604 17.976 5.71206 17.976H18.2881C18.6241 17.976 18.912 18.264 18.912 18.6C18.912 18.936 18.624 19.224 18.288 19.224H18.2881ZM18.2881 14.832H5.71206C5.37604 14.832 5.08808 14.544 5.08808 14.208C5.08808 13.872 5.37604 13.584 5.71206 13.584H18.2881C18.6241 13.584 18.912 13.872 18.912 14.208C18.912 14.5439 18.624 14.832 18.288 14.832H18.2881ZM18.2881 10.416H13.8001C13.464 10.416 13.1761 10.128 13.1761 9.792C13.1761 9.45598 13.464 9.16802 13.8001 9.16802H18.2641C18.6001 9.16802 18.888 9.45598 18.888 9.792C18.9121 10.152 18.6241 10.416 18.288 10.416H18.2881ZM18.2881 6.02398H13.8001C13.464 6.02398 13.1761 5.73602 13.1761 5.4C13.1761 5.06398 13.464 4.77602 13.8001 4.77602H18.2641C18.6001 4.77602 18.888 5.06398 18.888 5.4C18.888 5.73602 18.6241 6.02398 18.288 6.02398H18.2881Z" fill="#2C96D0"/>
</svg>
