<svg width="22" height="16" viewBox="0 0 22 16" fill="none" xmlns="http://www.w3.org/2000/svg">
<path d="M21.0537 0.11548C20.8693 0.0439313 20.6714 0 20.4625 0H1.53706C1.32797 0 1.13001 0.0439278 0.945862 0.11548L10.9996 7.08673L21.0537 0.11548Z" fill="#728D9B"/>
<path d="M11.4125 8.57174C11.2914 8.65979 11.1456 8.70372 11 8.70372C10.8543 8.70372 10.7085 8.65979 10.5821 8.57174L0.0220598 1.25134C0.0109341 1.34208 0 1.43837 0 1.53735V13.7061C0 14.5559 0.6875 15.2434 1.5373 15.2434H20.4627C21.3125 15.2434 22 14.5559 22 13.7061V1.53735C22 1.44106 21.9891 1.34207 21.9753 1.25134L11.4125 8.57174Z" fill="#728D9B"/>
</svg>
