<svg width="26" height="33" viewBox="0 0 26 33" fill="none" xmlns="http://www.w3.org/2000/svg">
<path d="M25.4535 1C25.4535 0.723858 25.2296 0.5 24.9535 0.5H1.52734C1.2512 0.5 1.02734 0.723858 1.02734 1V2.06081C1.02734 2.33695 1.2512 2.56081 1.52734 2.56081H2.97212V8.51395C2.97212 8.7901 3.19598 9.01395 3.47212 9.01395H23.097C23.3732 9.01395 23.597 8.7901 23.597 8.51395V2.56081H24.9535C25.2296 2.56081 25.4535 2.33695 25.4535 2.06081V1ZM23.597 12.1405C23.597 11.8643 23.3732 11.6405 23.097 11.6405H3.47212C3.19598 11.6405 2.97212 11.8643 2.97212 12.1405V20.0082C2.97212 20.2844 3.19598 20.5082 3.47212 20.5082H23.097C23.3732 20.5082 23.597 20.2844 23.597 20.0082V12.1405ZM23.597 23.7225C23.597 23.4464 23.3732 23.2225 23.097 23.2225H3.47222C3.19608 23.2225 2.97222 23.4464 2.97222 23.7225V29.5874H1.52745C1.25131 29.5874 1.02745 29.8112 1.02745 30.0874V31.2366C1.02745 31.5128 1.25131 31.7366 1.52745 31.7366H24.9535C25.2296 31.7366 25.4535 31.5128 25.4535 31.2366V30.0874C25.4535 29.8112 25.2296 29.5874 24.9535 29.5874H23.597V23.7225Z" fill="#439ACA" stroke="#439ACA" stroke-linejoin="round"/>
<path d="M13.1756 11.7041C13.1275 11.648 13.0486 11.6251 12.9734 11.6445C12.8984 11.6638 12.8444 11.7217 12.8348 11.7919C12.8329 11.8077 12.596 13.3785 10.6784 15.8284C10.0642 16.6129 9.94676 17.6098 10.3626 18.4944C10.7096 19.2325 11.3892 19.7672 12.2173 19.9691C11.8009 19.76 11.4869 19.3602 11.4774 18.6962C11.4755 18.6763 11.4062 17.8571 12.2013 16.717C12.2302 16.6753 12.2745 16.6464 12.3264 16.6373C12.3765 16.6282 12.4304 16.639 12.4728 16.6681C12.492 16.6807 12.8462 16.92 13.0253 17.3568C13.266 16.9744 13.5702 16.3128 13.3257 15.6676C13.2968 15.5915 13.3257 15.5063 13.3969 15.4592C13.4681 15.4121 13.5625 15.4158 13.6299 15.4665C13.651 15.4828 15.69 17.0832 14.7697 19.0097C14.7581 19.0381 14.5015 19.6313 13.9041 19.9512C15.3207 19.5984 16.3657 18.4185 16.3657 17.0166C16.3658 15.3898 13.3065 11.8534 13.1754 11.7042L13.1756 11.7041Z" fill="white"/>
</svg>
