<svg width="58" height="59" viewBox="0 0 58 59" fill="none" xmlns="http://www.w3.org/2000/svg">
<rect y="0.408203" width="58" height="58" rx="10" fill="#3B9DD3"/>
<path d="M28.7354 10.8747C28.5395 10.6278 28.2182 10.5273 27.9123 10.6124C27.6067 10.6972 27.3872 10.9519 27.3479 11.2606C27.34 11.33 26.3759 18.2364 18.5688 29.0084C16.0683 32.4576 15.5903 36.8408 17.2834 40.7302C18.6962 43.9756 21.4625 46.3266 24.834 47.2142C23.1389 46.2948 21.8604 44.537 21.8217 41.6177C21.814 41.5301 21.5317 37.9282 24.7689 32.9155C24.8866 32.7321 25.0668 32.6048 25.2783 32.5648C25.4822 32.525 25.7017 32.5726 25.874 32.7002C25.9524 32.7559 27.3945 33.8078 28.1234 35.7284C29.1032 34.0471 30.3416 31.1384 29.3463 28.3016C29.2286 27.9668 29.3463 27.5923 29.6363 27.3852C29.9263 27.1781 30.3104 27.194 30.5847 27.4171C30.6708 27.4888 38.9716 34.5253 35.2249 42.9959C35.178 43.1208 34.1332 45.7292 31.7012 47.1354C37.4681 45.5842 41.7228 40.3966 41.7228 34.2328C41.7231 27.0798 29.268 11.5309 28.7345 10.8752L28.7354 10.8747Z" fill="white"/>
</svg>
