<svg width="31" height="31" viewBox="0 0 31 31" fill="none" xmlns="http://www.w3.org/2000/svg">
<path d="M15.5002 2.58337C8.396 2.58337 2.5835 8.39587 2.5835 15.5C2.5835 18.4709 3.61683 21.3125 5.55433 23.6375L2.971 26.2209C2.45433 26.7375 2.45433 27.5125 2.971 28.0292C3.22933 28.2875 3.48766 28.4167 3.87516 28.4167H15.5002C22.6043 28.4167 28.4168 22.6042 28.4168 15.5C28.4168 8.39587 22.6043 2.58337 15.5002 2.58337ZM10.3335 16.7917C9.5585 16.7917 9.04183 16.275 9.04183 15.5C9.04183 14.725 9.5585 14.2084 10.3335 14.2084C11.1085 14.2084 11.6252 14.725 11.6252 15.5C11.6252 16.275 11.1085 16.7917 10.3335 16.7917ZM15.5002 16.7917C14.7252 16.7917 14.2085 16.275 14.2085 15.5C14.2085 14.725 14.7252 14.2084 15.5002 14.2084C16.2752 14.2084 16.7918 14.725 16.7918 15.5C16.7918 16.275 16.2752 16.7917 15.5002 16.7917ZM20.6668 16.7917C19.8918 16.7917 19.3752 16.275 19.3752 15.5C19.3752 14.725 19.8918 14.2084 20.6668 14.2084C21.4418 14.2084 21.9585 14.725 21.9585 15.5C21.9585 16.275 21.4418 16.7917 20.6668 16.7917Z" fill="white"/>
</svg>
