<svg width="44" height="47" viewBox="0 0 44 47" fill="none" xmlns="http://www.w3.org/2000/svg">
<path fill-rule="evenodd" clip-rule="evenodd" d="M4.30942 7.34375C4.30942 3.28799 7.52515 0 11.4918 0C15.4584 0 18.6742 3.28799 18.6742 7.34375V26.0774C21.299 28.2288 22.9836 31.5383 22.9836 35.25C22.9836 41.7394 17.8385 47 11.4918 47C5.14504 47 0 41.7394 0 35.25C0 31.5381 1.68461 28.2285 4.30942 26.0774V7.34375ZM11.4918 8.8125C12.2851 8.8125 12.9283 9.47016 12.9283 10.2812V30.8438C12.9283 30.9267 12.9215 31.008 12.9087 31.0873C14.5927 31.6866 15.8012 33.3239 15.8012 35.25C15.8012 37.6836 13.8719 39.6563 11.4918 39.6563C9.11165 39.6563 7.18235 37.6836 7.18235 35.25C7.18235 33.3239 8.39087 31.6867 10.0748 31.0873C10.062 31.008 10.0553 30.9267 10.0553 30.8438V10.2812C10.0553 9.47016 10.6985 8.8125 11.4917 8.8125H11.4918Z" fill="#4298C8"/>
<path d="M43.6549 13.2053C43.4784 12.5332 42.787 12.1346 42.1169 12.3185L39.9989 12.8999L36.917 11.078L39.8678 9.3344L41.9849 9.91555C42.6553 10.0996 43.3468 9.70039 43.5227 9.02787C43.6956 8.36653 43.3044 7.6891 42.6451 7.50845L41.189 7.10945L41.5931 5.56935C41.7631 4.92141 41.38 4.25732 40.7339 4.08017C40.0775 3.90017 39.4005 4.29101 39.2281 4.9495L38.6471 7.16871L35.6962 8.91258V5.26876L37.2964 3.62811C37.7642 3.14844 37.764 2.38316 37.2959 1.90377C36.8118 1.40803 36.0146 1.40773 35.5301 1.90309L34.4757 2.98126L33.4213 1.90309C32.9368 1.40773 32.1396 1.40803 31.6555 1.90377C31.1874 2.38316 31.1872 3.14844 31.655 3.6281L33.2551 5.26876V8.91258L30.3043 7.16871L29.7233 4.9495C29.5509 4.29101 28.8739 3.90017 28.2175 4.08017C27.5714 4.25732 27.1883 4.92141 27.3583 5.56935L27.7624 7.10945L26.3063 7.50845C25.647 7.6891 25.2557 8.36653 25.4287 9.02787C25.6046 9.70039 26.2961 10.0996 26.9665 9.91555L29.0836 9.3344L32.0344 11.078L28.9524 12.8999L26.8322 12.3185C26.1618 12.1346 25.4703 12.534 25.2945 13.2066C25.1215 13.868 25.5129 14.5455 26.1722 14.7261L27.628 15.1251L27.2256 16.6652C27.0563 17.3132 27.4396 17.9769 28.0856 18.154C28.7424 18.3341 29.4198 17.943 29.5923 17.2841L30.1729 15.0656L33.2551 13.2437V16.7312L31.6549 18.3719C31.1871 18.8516 31.1874 19.6168 31.6555 20.0962C32.1395 20.592 32.9367 20.5923 33.4212 20.0969L34.4756 19.0187L35.5301 20.0969C36.0145 20.5923 36.8117 20.592 37.2958 20.0962C37.7639 19.6168 37.7642 18.8516 37.2963 18.3719L35.6962 16.7312V13.2437L38.7783 15.0656L39.359 17.2841C39.5314 17.943 40.2089 18.3341 40.8657 18.154C41.5116 17.9769 41.895 17.3132 41.7257 16.6652L41.3232 15.1251L42.7774 14.7266C43.4375 14.5457 43.8288 13.8672 43.6549 13.2053Z" fill="#4298C8"/>
</svg>
