<svg width="22" height="22" viewBox="0 0 22 22" fill="none" xmlns="http://www.w3.org/2000/svg">
<path d="M10.5925 0C4.74243 0 -6.10352e-05 4.92483 -6.10352e-05 11C-6.10352e-05 17.0752 4.74237 22 10.5925 22C16.4427 22 21.1851 17.0752 21.1851 11C21.1851 4.92483 16.4427 0 10.5925 0ZM10.5925 3.4375C10.9583 3.4375 11.2545 3.74538 11.2545 4.12494V10.3124H16.5509C16.9167 10.3124 17.2129 10.6203 17.2129 10.9999C17.2129 11.3797 16.9164 11.6873 16.5509 11.6873H10.5926C10.2268 11.6873 9.93061 11.3794 9.93061 10.9999V4.12488C9.93061 3.74506 10.227 3.4375 10.5925 3.4375Z" fill="#728D9B"/>
</svg>
