<svg xmlns="http://www.w3.org/2000/svg" width="170" height="41" viewBox="0 0 170 41" fill="none">
  <path d="M56.5737 1.01416H58.2388L68.2655 13.2092V1.01416H70.0391V16.2407H68.6274L58.3112 3.73565V16.1718H56.5737V1.01416Z" fill="#505457"/>
  <path d="M88.8967 8.55851C88.9161 6.94721 88.2645 5.39411 87.0843 4.23865C85.9041 3.08318 84.2913 2.41931 82.5984 2.39211C81.7492 2.40031 80.9106 2.57185 80.1329 2.89642C79.3552 3.22098 78.6545 3.69186 78.0729 4.28075C77.4914 4.86964 77.0409 5.56438 76.7487 6.32319C76.4565 7.082 76.3285 7.88922 76.3725 8.69631C76.3435 9.50565 76.4842 10.3124 76.7864 11.0694C77.0886 11.8264 77.5462 12.5185 78.1325 13.1054C78.7189 13.6922 79.4221 14.1621 80.2013 14.4875C80.9805 14.8128 81.82 14.9873 82.6708 15.0005C83.5214 14.9972 84.3625 14.8289 85.1426 14.5061C85.9227 14.1832 86.6255 13.7124 87.2081 13.1225C87.7907 12.5325 88.2409 11.8358 88.5312 11.0748C88.8215 10.3139 88.9459 9.50456 88.8967 8.69631V8.55851ZM74.4178 8.69631C74.3984 7.66107 74.5972 6.63262 75.0023 5.67168C75.4075 4.71075 76.0108 3.8368 76.7767 3.10145C77.5426 2.3661 78.4556 1.78425 79.4617 1.39025C80.4678 0.996247 81.5467 0.798078 82.6346 0.807446C84.277 0.793794 85.8867 1.24484 87.2593 2.10334C88.632 2.96184 89.7057 4.18908 90.3442 5.62933C90.9827 7.06957 91.1572 8.65788 90.8456 10.1927C90.534 11.7275 89.7503 13.1396 88.5939 14.2498C87.4376 15.3599 85.9608 16.1182 84.3509 16.4282C82.741 16.7382 81.0707 16.586 79.5518 15.991C78.0329 15.396 76.734 14.385 75.82 13.0862C74.9059 11.7874 74.4179 10.2595 74.4178 8.69631Z" fill="#505457"/>
  <path d="M92.8413 1.01416H94.8684L100.515 14.1049L106.234 1.01416H108.189L101.348 16.3096H99.7188L92.8413 1.01416Z" fill="#505457"/>
  <path d="M111.953 1.01416H123.536V2.59883H113.763V7.80066H122.487V9.38532H113.763V14.6905H123.609V16.2752H111.953V1.01416Z" fill="#505457"/>
  <path d="M127.807 1.01416H129.617V14.5872H138.63V16.1718H127.807V1.01416Z" fill="#505457"/>
  <path d="M144.421 2.59883H139.064V1.01416H151.624V2.59883H146.231V16.2407H144.421V2.59883Z" fill="#505457"/>
  <path d="M160.567 10.1432L153.906 0.945312H156.078L161.471 8.55858L166.937 1.0142H169.037L162.376 10.1432V16.1718H160.567V10.1432Z" fill="#505457"/>
  <path d="M56.5737 24.7144H68.1569V26.299H58.3836V31.5008H67.1071V33.0855H58.3836V38.3907H68.2293V39.9753H56.5737V24.7144Z" fill="#4298C8"/>
  <path d="M77.3865 32.1209L71.4863 24.7144H73.6219L78.5086 30.9152L83.3952 24.7144H85.4585L79.5583 32.1209L85.7119 39.9409H83.5762L78.4724 33.3956L73.3686 39.9409H71.2329L77.3865 32.1209Z" fill="#4298C8"/>
  <path d="M95.3394 32.9477C97.9818 32.9477 99.7192 31.6042 99.7192 29.5028C99.7192 27.4014 97.9818 26.0579 95.4118 26.0579H91.3938V32.7755L95.3394 32.9477ZM89.584 24.7144H95.7375C99.3573 24.7144 101.746 26.5057 101.746 29.5717C101.746 32.6377 98.8867 34.5324 95.4479 34.5324H91.3938V39.872H89.584V24.7144Z" fill="#4298C8"/>
  <path d="M112.098 32.4667C114.487 32.4667 116.188 31.2955 116.188 29.2974C116.188 27.2994 114.668 26.3003 112.098 26.3003H107.139V32.4667H112.098ZM105.365 24.7157H112.243C113.065 24.671 113.888 24.782 114.665 25.0422C115.441 25.3024 116.156 25.7066 116.767 26.2314C117.58 27.0627 118.022 28.1622 117.998 29.2974C117.997 30.3949 117.572 31.4538 116.805 32.273C116.038 33.0922 114.981 33.6147 113.835 33.7414L118.758 39.9422H116.514L111.881 34.0514H107.139V39.9422H105.329V24.7157H105.365Z" fill="#4298C8"/>
  <path d="M122.488 24.7148H134.035V26.2995H124.298V31.5013H132.985V33.086H124.298V38.3912H134.143V39.9758H122.488V24.7148Z" fill="#4298C8"/>
  <path d="M137.292 37.6684L138.378 36.3938C139.092 37.0806 139.944 37.6236 140.883 37.9906C141.822 38.3575 142.829 38.5408 143.844 38.5297C146.016 38.5297 147.463 37.4273 147.463 35.9115C147.463 34.3957 146.667 33.6723 143.337 33.0178C140.007 32.3632 137.944 31.0886 137.944 28.5738C137.988 27.9678 138.161 27.3767 138.452 26.8358C138.743 26.295 139.145 25.8156 139.636 25.4264C140.126 25.0371 140.693 24.7461 141.304 24.5707C141.916 24.3952 142.558 24.339 143.192 24.4055C145.232 24.354 147.223 25.002 148.803 26.2313L147.753 27.5748C146.461 26.5228 144.82 25.9374 143.12 25.9213C141.02 25.9213 139.753 27.0236 139.753 28.436C139.753 29.8485 140.55 30.6408 144.097 31.3642C147.644 32.0877 149.273 33.3623 149.273 35.7048C149.273 38.0474 146.993 40.011 143.808 40.011C142.617 40.0625 141.427 39.8813 140.313 39.4784C139.199 39.0755 138.183 38.4595 137.328 37.6684" fill="#4298C8"/>
  <path d="M152.24 37.6684L153.326 36.3938C154.04 37.0806 154.892 37.6236 155.831 37.9906C156.77 38.3575 157.777 38.5408 158.792 38.5297C160.964 38.5297 162.412 37.4273 162.412 35.9115C162.412 34.3957 161.615 33.6723 158.285 33.0178C154.955 32.3632 152.892 31.0886 152.892 28.5738C152.937 27.9678 153.11 27.3767 153.4 26.8358C153.691 26.295 154.094 25.8156 154.584 25.4264C155.074 25.0371 155.642 24.7461 156.253 24.5707C156.864 24.3952 157.506 24.339 158.14 24.4055C160.18 24.354 162.171 25.002 163.751 26.2313L162.701 27.5748C161.409 26.5228 159.769 25.9374 158.068 25.9213C155.969 25.9213 154.702 27.0236 154.702 28.436C154.702 29.8485 155.498 30.6408 159.045 31.3642C162.593 32.0877 164.222 33.3623 164.222 35.7048C164.222 38.0474 161.941 40.011 158.756 40.011C157.565 40.0625 156.376 39.8813 155.261 39.4784C154.147 39.0755 153.131 38.4595 152.276 37.6684" fill="#4298C8"/>
  <path d="M3.76435 0.910472C4.68253 4.97304 6.86599 8.67787 10.0298 11.5416C13.1937 14.4053 17.191 16.2949 21.5003 16.9638C21.6587 16.9937 21.8221 16.9907 21.9793 16.955C22.1364 16.9193 22.2836 16.8517 22.4108 16.7568C22.5379 16.6619 22.6421 16.5421 22.7161 16.4054C22.7901 16.2687 22.8322 16.1184 22.8395 15.9648C23.2063 10.6496 21.7452 5.36528 18.677 0.910472H23.3462C23.3462 0.910472 24.4321 3.01187 25.0112 4.35539C25.0386 4.406 25.0802 4.44844 25.1312 4.47808C25.1823 4.50771 25.241 4.5234 25.3008 4.5234C25.3606 4.5234 25.4193 4.50771 25.4704 4.47808C25.5215 4.44844 25.563 4.406 25.5904 4.35539C25.9711 3.15494 26.4932 1.99929 27.1468 0.910472H30.4406C27.5328 5.48575 26.3816 10.879 27.183 16.1715C27.1973 16.2703 27.2351 16.3647 27.2937 16.4475C27.3522 16.5303 27.4298 16.5993 27.5206 16.6491C27.6114 16.699 27.713 16.7284 27.8176 16.7352C27.9222 16.742 28.027 16.7259 28.1241 16.6882L40.6478 10.4873V18.2384C37.176 18.1933 33.7338 18.8509 30.5492 20.1676C30.4143 20.22 30.2948 20.3027 30.2007 20.4086C30.1066 20.5145 30.0408 20.6404 30.0088 20.7757C29.9768 20.911 29.9796 21.0516 30.017 21.1857C30.0544 21.3197 30.1252 21.4432 30.2234 21.5455C32.1056 23.7158 37.173 29.3655 40.7202 30.5368V34.9463L37.1006 32.6382C37.0562 32.6039 37.0022 32.5829 36.9453 32.5779C36.8884 32.5728 36.8313 32.5838 36.781 32.6096C36.7306 32.6354 36.6895 32.6747 36.6626 32.7227C36.6358 32.7707 36.6245 32.8252 36.6301 32.8793C36.4824 35.1675 37.1173 37.4397 38.4399 39.3558H32.7933C32.7933 39.3558 35.0013 32.0525 27.183 22.9924C27.0709 22.8685 26.932 22.7692 26.7758 22.701C26.6196 22.6329 26.4499 22.5976 26.2781 22.5976C26.1063 22.5976 25.9365 22.6329 25.7804 22.701C25.6242 22.7692 25.4853 22.8685 25.3732 22.9924C23.2046 25.1898 21.5229 27.7802 20.4285 30.6092C19.334 33.4382 18.8491 36.448 19.0028 39.4591H14.2249C14.3918 37.3779 14.8923 35.3332 15.7089 33.3961C15.7089 33.1894 15.7089 32.9482 15.3108 33.0516C12.0369 34.5382 9.18293 36.7466 6.98577 39.4936H0V32.9482C0 32.9482 15.2022 34.2228 21.7174 21.3388C21.7656 21.2466 21.7935 21.146 21.7995 21.0431C21.8054 20.9402 21.7893 20.8373 21.752 20.7406C21.7147 20.6438 21.6572 20.5554 21.5828 20.4805C21.5083 20.4057 21.4187 20.3461 21.3193 20.3054C18.315 19.1685 6.84099 15.5858 0.0723896 21.2699V15.0691H5.71892C5.79696 15.0655 5.87216 15.0401 5.93515 14.9961C5.99813 14.9521 6.04611 14.8914 6.07313 14.8216C6.10014 14.7518 6.10498 14.676 6.08705 14.6036C6.06912 14.5313 6.02921 14.4655 5.9723 14.4146C3.86779 12.9537 1.89437 11.329 0.0723896 9.55723V0.807129H3.69196L3.76435 0.910472Z" fill="#439ACA"/>
</svg>