<svg width="41" height="40" viewBox="0 0 41 40" fill="none" xmlns="http://www.w3.org/2000/svg">
<path d="M3.76435 0.910472C4.68253 4.97304 6.86599 8.67787 10.0298 11.5416C13.1937 14.4053 17.191 16.2949 21.5003 16.9638C21.6587 16.9937 21.8221 16.9907 21.9793 16.955C22.1364 16.9193 22.2836 16.8517 22.4108 16.7568C22.5379 16.6619 22.6421 16.5421 22.7161 16.4054C22.7901 16.2687 22.8322 16.1184 22.8395 15.9648C23.2063 10.6496 21.7452 5.36528 18.677 0.910472H23.3462C23.3462 0.910472 24.4321 3.01187 25.0112 4.35539C25.0386 4.406 25.0802 4.44844 25.1312 4.47808C25.1823 4.50771 25.241 4.5234 25.3008 4.5234C25.3606 4.5234 25.4193 4.50771 25.4704 4.47808C25.5215 4.44844 25.563 4.406 25.5904 4.35539C25.9711 3.15494 26.4932 1.99929 27.1468 0.910472H30.4406C27.5328 5.48575 26.3816 10.879 27.183 16.1715C27.1973 16.2703 27.2351 16.3647 27.2937 16.4475C27.3522 16.5303 27.4298 16.5993 27.5206 16.6491C27.6114 16.699 27.713 16.7284 27.8176 16.7352C27.9222 16.742 28.027 16.7259 28.1241 16.6882L40.6478 10.4873V18.2384C37.176 18.1933 33.7338 18.8509 30.5492 20.1676C30.4143 20.22 30.2948 20.3027 30.2007 20.4086C30.1066 20.5145 30.0408 20.6404 30.0088 20.7757C29.9768 20.911 29.9796 21.0516 30.017 21.1857C30.0544 21.3197 30.1252 21.4432 30.2234 21.5455C32.1056 23.7158 37.173 29.3655 40.7202 30.5368V34.9463L37.1006 32.6382C37.0562 32.6039 37.0022 32.5829 36.9453 32.5779C36.8884 32.5728 36.8313 32.5838 36.781 32.6096C36.7306 32.6354 36.6895 32.6747 36.6626 32.7227C36.6358 32.7707 36.6245 32.8252 36.6301 32.8793C36.4824 35.1675 37.1173 37.4397 38.4399 39.3558H32.7933C32.7933 39.3558 35.0013 32.0525 27.183 22.9924C27.0709 22.8685 26.932 22.7692 26.7758 22.701C26.6196 22.6329 26.4499 22.5976 26.2781 22.5976C26.1063 22.5976 25.9365 22.6329 25.7804 22.701C25.6242 22.7692 25.4853 22.8685 25.3732 22.9924C23.2046 25.1898 21.5229 27.7802 20.4285 30.6092C19.334 33.4382 18.8491 36.448 19.0028 39.4591H14.2249C14.3918 37.3779 14.8923 35.3332 15.7089 33.3961C15.7089 33.1894 15.7089 32.9482 15.3108 33.0516C12.0369 34.5382 9.18293 36.7466 6.98577 39.4936H0V32.9482C0 32.9482 15.2022 34.2228 21.7174 21.3388C21.7656 21.2466 21.7935 21.146 21.7995 21.0431C21.8054 20.9402 21.7893 20.8373 21.752 20.7406C21.7147 20.6438 21.6572 20.5554 21.5828 20.4805C21.5083 20.4057 21.4187 20.3461 21.3193 20.3054C18.315 19.1685 6.84099 15.5858 0.0723896 21.2699V15.0691H5.71892C5.79696 15.0655 5.87216 15.0401 5.93515 14.9961C5.99813 14.9521 6.04611 14.8914 6.07313 14.8216C6.10014 14.7518 6.10498 14.676 6.08705 14.6036C6.06912 14.5313 6.02921 14.4655 5.9723 14.4146C3.86779 12.9537 1.89437 11.329 0.0723896 9.55723V0.807129H3.69196L3.76435 0.910472Z" fill="#439ACA"/>
</svg>
